<?xml version="1.0" encoding="utf-8"?>
<!-- Generator: Adobe Illustrator 15.1.0, SVG Export Plug-In . SVG Version: 6.00 Build 0)  -->
<!DOCTYPE svg PUBLIC "-//W3C//DTD SVG 1.1//EN" "http://www.w3.org/Graphics/SVG/1.1/DTD/svg11.dtd">
<svg version="1.1" xmlns="http://www.w3.org/2000/svg" xmlns:xlink="http://www.w3.org/1999/xlink" x="0px" y="0px" width="54px"
	 height="54px" viewBox="0 0 54 54" enable-background="new 0 0 54 54" xml:space="preserve">
<g id="Layer_1" display="none">
	<circle display="inline" fill="#FFFFFF" stroke="#000000" stroke-miterlimit="10" cx="18" cy="18" r="17.1"/>
	<text transform="matrix(1 0 0 1 4.2397 15.6597)" display="inline"><tspan x="0" y="0" font-family="'MyriadPro-Regular'" font-size="12">G</tspan><tspan x="7.812" y="0" font-family="'MyriadPro-Regular'" font-size="12">ood</tspan><tspan x="0" y="14.4" font-family="'MyriadPro-Regular'" font-size="12">Guy</tspan></text>
	<polyline display="inline" fill="#FF0000" points="13.051,5.5 18,0.55 22.949,5.5 	"/>
</g>
<g id="the_squirrel">
	<g>
		
			<ellipse fill="#754C24" stroke="#42210B" stroke-width="0.5" stroke-miterlimit="10" cx="34.795" cy="27.322" rx="13.905" ry="6.287"/>
		
			<ellipse fill="#754C24" stroke="#42210B" stroke-width="0.5" stroke-miterlimit="10" cx="49.652" cy="27.322" rx="3.492" ry="6.287"/>
		<ellipse fill="#603813" stroke="#42210B" stroke-miterlimit="10" cx="12.445" cy="27.29" rx="11.62" ry="4.794"/>
		<g>
			
				<ellipse fill="#FFFFFF" stroke="#42210B" stroke-width="0.25" stroke-miterlimit="10" cx="50.033" cy="26.092" rx="1.016" ry="1.11"/>
			<ellipse stroke="#42210B" stroke-width="0.25" stroke-miterlimit="10" cx="50.096" cy="26.029" rx="0.443" ry="0.349"/>
		</g>
		<g>
			
				<ellipse fill="#FFFFFF" stroke="#42210B" stroke-width="0.25" stroke-miterlimit="10" cx="50.033" cy="29.141" rx="1.017" ry="1.11"/>
			<ellipse stroke="#42210B" stroke-width="0.25" stroke-miterlimit="10" cx="50.096" cy="29.077" rx="0.444" ry="0.35"/>
		</g>
		<path fill="#C69C6D" stroke="#754C24" stroke-width="0.25" stroke-miterlimit="10" d="M47.283,28.672
			c-1.774,0.425-3.017,1.622-3.604,2.951c-0.454,1.027,2.772,1.426,4.547,1.001"/>
		<path fill="#C69C6D" stroke="#754C24" stroke-width="0.25" stroke-miterlimit="10" d="M46.91,26.207
			c-1.693-0.675-2.752-2.037-3.141-3.438c-0.305-1.08,2.949-1.012,4.645-0.337"/>
		<ellipse stroke="#42210B" stroke-width="0.25" stroke-miterlimit="10" cx="51.78" cy="27.41" rx="0.603" ry="1.317"/>
	</g>
</g>
</svg>
